<?xml version="1.0" standalone="no"?>
<!DOCTYPE svg PUBLIC "-//W3C//DTD SVG 20010904//EN"
 "http://www.w3.org/TR/2001/REC-SVG-20010904/DTD/svg10.dtd">
<svg version="1.0" xmlns="http://www.w3.org/2000/svg"
 width="421.000000pt" height="421.000000pt" viewBox="0 0 421.000000 421.000000"
 preserveAspectRatio="xMidYMid meet">
<metadata>
Created by potrace 1.14, written by Peter Selinger 2001-2017
</metadata>
<g transform="translate(0.000000,421.000000) scale(0.100000,-0.100000)"
fill="#000000" stroke="none">
<path d="M1243 4196 c-3 -5 -6 -150 -6 -322 0 -219 -3 -314 -11 -315 -6 -1
-194 -2 -417 -3 -327 -1 -409 -4 -423 -15 -15 -12 -16 -148 -16 -1742 0 -1557
2 -1729 16 -1743 14 -14 92 -16 714 -16 520 0 701 3 706 12 4 6 7 364 7 794 0
431 4 781 9 778 4 -3 8 -13 8 -23 0 -10 3 -21 7 -25 4 -3 8 -12 9 -19 1 -7 7
-32 14 -57 7 -25 13 -49 14 -55 1 -5 5 -16 9 -22 5 -7 6 -13 2 -13 -3 0 2 -14
11 -31 8 -17 12 -29 6 -26 -5 4 -4 -9 2 -28 6 -18 15 -31 20 -28 5 3 6 1 2 -5
-7 -12 25 -153 34 -147 4 2 6 -4 6 -13 0 -49 5 -73 14 -67 5 3 7 0 4 -8 -3 -8
2 -34 11 -58 9 -24 17 -53 19 -64 6 -39 18 -90 25 -100 3 -5 6 -12 6 -15 2
-14 30 -126 52 -205 14 -49 26 -97 28 -105 7 -31 47 -186 53 -200 3 -8 7 -24
9 -35 2 -11 6 -27 10 -35 3 -8 7 -18 8 -22 2 -5 3 -9 5 -10 1 -2 3 -12 4 -23
2 -11 9 -40 16 -65 7 -25 13 -50 14 -56 1 -7 8 -20 16 -30 9 -11 10 -15 3 -10
-9 5 -11 2 -7 -8 4 -10 18 -16 36 -16 21 0 27 4 22 12 -6 10 -5 10 8 0 17 -13
106 -14 114 0 3 4 9 6 14 3 9 -6 131 25 140 35 3 3 12 6 20 7 8 1 24 4 35 6
67 16 81 20 90 26 6 4 17 7 25 6 8 -1 26 3 40 8 14 5 32 10 41 12 9 2 33 8 55
14 21 5 50 12 64 15 14 3 29 6 35 8 6 2 10 -17 10 -42 0 -25 4 -51 8 -58 6 -9
101 -12 417 -12 355 0 409 2 414 15 6 17 6 3584 -1 3602 -3 8 -113 11 -414 11
-369 0 -410 -2 -417 -17 -5 -9 -8 -517 -8 -1128 1 -612 -2 -1113 -6 -1113 -5
0 -8 9 -8 20 0 10 -4 29 -9 42 -6 13 -12 40 -16 61 -3 21 -10 35 -15 32 -6 -3
-7 1 -4 9 3 9 3 24 -1 34 -5 9 -9 23 -11 31 -6 28 -45 176 -51 191 -7 17 -12
35 -18 65 -11 59 -17 80 -26 97 -5 10 -8 18 -5 18 3 0 0 15 -5 33 -9 28 -44
154 -55 197 -2 8 -20 74 -39 145 -20 72 -38 145 -42 162 -3 18 -8 31 -12 29
-3 -2 -6 8 -7 22 0 15 -13 72 -29 127 -15 55 -32 119 -37 143 -5 23 -14 42
-19 42 -6 0 -8 4 -4 9 7 12 -16 101 -27 101 -4 0 -5 6 -2 14 6 15 -21 34 -43
30 -7 -1 -21 -2 -30 -3 -16 -1 -16 -3 -3 -11 9 -6 10 -10 3 -10 -6 0 -14 4
-18 10 -3 6 -14 6 -28 0 -12 -5 -58 -19 -102 -30 -44 -12 -87 -24 -95 -27 -8
-3 -22 -7 -30 -8 -52 -9 -188 -50 -184 -56 2 -4 -5 -5 -16 -2 -11 3 -26 0 -33
-6 -8 -6 -17 -8 -20 -4 -4 3 -13 1 -21 -6 -8 -6 -18 -11 -22 -10 -23 4 -35 -2
-28 -13 5 -9 2 -9 -9 1 -9 7 -17 9 -17 4 0 -5 -10 -9 -22 -8 l-23 2 -1 651 c0
359 -4 655 -8 659 -11 11 -557 10 -563 -1z m1318 -2159 c-10 -9 -11 -8 -5 6 3
10 9 15 12 12 3 -3 0 -11 -7 -18z m249 -221 c0 -2 -7 -7 -16 -10 -8 -3 -12 -2
-9 4 6 10 25 14 25 6z m-485 -85 c3 -5 2 -12 -3 -15 -5 -3 -9 1 -9 9 0 17 3
19 12 6z m-155 -25 c0 -2 -8 -10 -17 -17 -16 -13 -17 -12 -4 4 13 16 21 21 21
13z m-200 -40 c0 -2 -8 -10 -17 -17 -16 -13 -17 -12 -4 4 13 16 21 21 21 13z
m351 -63 c13 -16 12 -17 -3 -4 -10 7 -18 15 -18 17 0 8 8 3 21 -13z m164 -22
c3 -5 2 -12 -3 -15 -5 -3 -9 1 -9 9 0 17 3 19 12 6z m-321 -9 c3 -5 -1 -9 -9
-9 -8 0 -12 4 -9 9 3 4 7 8 9 8 2 0 6 -4 9 -8z m-193 -159 c13 -16 12 -17 -3
-4 -17 13 -22 21 -14 21 2 0 10 -8 17 -17z m440 -40 c13 -16 12 -17 -3 -4 -10
7 -18 15 -18 17 0 8 8 3 21 -13z m-250 -90 c13 -16 12 -17 -3 -4 -10 7 -18 15
-18 17 0 8 8 3 21 -13z m169 -29 c0 -8 -19 -13 -24 -6 -3 5 1 9 9 9 8 0 15 -2
15 -3z m475 -153 c3 -5 2 -12 -3 -15 -5 -3 -9 1 -9 9 0 17 3 19 12 6z m-124
-18 c13 -16 12 -17 -3 -4 -17 13 -22 21 -14 21 2 0 10 -8 17 -17z m-311 -137
c0 -2 -8 -10 -17 -17 -16 -13 -17 -12 -4 4 13 16 21 21 21 13z m241 -13 c13
-16 12 -17 -3 -4 -17 13 -22 21 -14 21 2 0 10 -8 17 -17z m-126 -2 c3 -5 2
-12 -3 -15 -5 -3 -9 1 -9 9 0 17 3 19 12 6z m356 -88 c13 -16 12 -17 -3 -4
-10 7 -18 15 -18 17 0 8 8 3 21 -13z m-191 -69 c0 -8 -19 -13 -24 -6 -3 5 1 9
9 9 8 0 15 -2 15 -3z m-285 -83 c3 -5 2 -12 -3 -15 -5 -3 -9 1 -9 9 0 17 3 19
12 6z m370 -1 c3 -6 -1 -7 -9 -4 -18 7 -21 14 -7 14 6 0 13 -4 16 -10z m-245
-154 c0 -2 -7 -7 -16 -10 -8 -3 -12 -2 -9 4 6 10 25 14 25 6z m-120 -150 c0
-2 -8 -10 -17 -17 -16 -13 -17 -12 -4 4 13 16 21 21 21 13z m120 -120 c0 -2
-8 -10 -17 -17 -16 -13 -17 -12 -4 4 13 16 21 21 21 13z m-3 -131 c0 -8 -4
-12 -9 -9 -5 3 -6 10 -3 15 9 13 12 11 12 -6z"/>
</g>
</svg>
